<svg width="32" height="24" viewBox="0 0 32 24" fill="none" xmlns="http://www.w3.org/2000/svg">
<path d="M31.3307 4.24799C31.1499 3.56702 30.7934 2.9455 30.2968 2.44567C29.8003 1.94584 29.1811 1.58524 28.5013 1.39999C26.0067 0.726654 16 0.726654 16 0.726654C16 0.726654 5.99333 0.726654 3.49733 1.39999C2.81788 1.58557 2.19906 1.9463 1.70277 2.4461C1.20648 2.94589 0.850122 3.56724 0.669333 4.24799C0 6.75999 0 12 0 12C0 12 0 17.24 0.669333 19.752C0.850115 20.433 1.20663 21.0545 1.70319 21.5543C2.19974 22.0541 2.8189 22.4147 3.49867 22.6C5.99333 23.2733 16 23.2733 16 23.2733C16 23.2733 26.0067 23.2733 28.5027 22.6C29.1825 22.4149 29.8017 22.0543 30.2983 21.5544C30.7949 21.0546 31.1513 20.433 31.332 19.752C32 17.24 32 12 32 12C32 12 32 6.75999 31.3307 4.24799ZM12.7267 16.7573V7.24265L21.0907 12L12.7267 16.7573Z" fill="url(#paint0_linear_7_3)"/>
<defs>
<linearGradient id="paint0_linear_7_3" x1="16" y1="0.726654" x2="16" y2="23.2733" gradientUnits="userSpaceOnUse">
<stop stop-color="#FFB800"/>
<stop offset="1" stop-color="#F2A20D"/>
</linearGradient>
</defs>
</svg>
